<svg xmlns="http://www.w3.org/2000/svg" width="35" height="35" viewBox="0 0 35 35">
    <path fill="#1D1D1B" fill-rule="evenodd" d="M30.898 0H4.102C1.84 0 0 1.84 0 4.102v26.796C0 33.16 1.84 35 4.102 35h26.796C33.16 35 35 33.16 35 30.898V4.102C35 1.84 33.16 0 30.898 0zm1.368 30.898c0 .754-.614 1.368-1.368 1.368h-8.066v-9.98h4.377l.51-4.24h-4.887v-4.58c0-1.168.882-2.05 2.05-2.05h3.077V7.451c-.81-.114-2.371-.273-3.076-.273-1.595 0-3.193.672-4.385 1.845-1.228 1.208-1.904 2.79-1.904 4.456v4.568H14.15v4.238h4.444v9.98H4.102c-.754 0-1.368-.613-1.368-1.367V4.102c0-.754.614-1.368 1.368-1.368h26.796c.754 0 1.368.614 1.368 1.368v26.796z"/>
</svg>
