<svg xmlns="http://www.w3.org/2000/svg" width="35" height="35" viewBox="0 0 35 35">
    <path fill="#1D1D1B" fill-rule="evenodd" d="M17.845 35h-.348c-2.744.006-5.279-.064-7.744-.214-2.26-.137-4.324-.918-5.967-2.258C2.2 31.235 1.118 29.487.568 27.332.089 25.457.064 23.615.04 21.835.022 20.557.004 19.043 0 17.503c.004-1.546.022-3.06.04-4.338.024-1.78.05-3.621.528-5.497.55-2.155 1.632-3.903 3.218-5.196C5.43 1.132 7.493.351 9.753.214c2.465-.15 5-.22 7.75-.214 2.745-.005 5.279.064 7.744.214 2.26.137 4.324.918 5.967 2.258 1.586 1.293 2.668 3.041 3.218 5.196.479 1.875.504 3.717.528 5.497.018 1.278.037 2.792.04 4.332v.006c-.003 1.54-.022 3.054-.04 4.332-.024 1.78-.049 3.621-.528 5.497-.55 2.155-1.632 3.903-3.218 5.196-1.643 1.34-3.707 2.12-5.967 2.258-2.36.144-4.786.214-7.402.214zm-.348-2.735c2.699.006 5.177-.062 7.584-.208 1.71-.104 3.191-.658 4.405-1.648 1.122-.915 1.895-2.178 2.297-3.753.398-1.561.421-3.238.443-4.859.018-1.269.036-2.772.04-4.297-.004-1.525-.022-3.028-.04-4.297-.022-1.621-.045-3.298-.443-4.86-.402-1.574-1.175-2.837-2.297-3.752-1.214-.99-2.696-1.544-4.405-1.648-2.407-.147-4.885-.214-7.578-.208-2.698-.007-5.177.061-7.584.208-1.71.104-3.191.658-4.405 1.648-1.122.915-1.895 2.178-2.297 3.753-.398 1.561-.421 3.237-.443 4.859-.018 1.27-.036 2.774-.04 4.3.004 1.52.022 3.024.04 4.294.022 1.621.045 3.298.443 4.86.402 1.574 1.175 2.837 2.297 3.752 1.214.99 2.696 1.544 4.405 1.648 2.407.146 4.886.215 7.578.208zm-.065-6.22c-4.712 0-8.546-3.833-8.546-8.545s3.834-8.545 8.546-8.545c4.711 0 8.545 3.833 8.545 8.545s-3.834 8.545-8.545 8.545zm0-14.356c-3.204 0-5.811 2.607-5.811 5.811 0 3.204 2.607 5.81 5.81 5.81 3.205 0 5.811-2.606 5.811-5.81 0-3.204-2.606-5.81-5.81-5.81zm9.502-5.468c-1.133 0-2.051.918-2.051 2.05 0 1.133.918 2.051 2.05 2.051 1.134 0 2.052-.918 2.052-2.05 0-1.133-.918-2.051-2.051-2.051z"/>
</svg>
