<svg xmlns="http://www.w3.org/2000/svg" xmlns:xlink="http://www.w3.org/1999/xlink" width="14" height="3" viewBox="0 0 14 3">
    <defs>
        <path id="prefix__a" d="M0 0L14 0 14 3 0 3z"/>
    </defs>
    <g fill="none" fill-rule="evenodd">
        <mask id="prefix__b" fill="#fff">
            <use xlink:href="#prefix__a"/>
        </mask>
        <path fill="#FFF" d="M13.772.944c-.28-.257-.71-.232-.96.056-.407.467-.595.603-1.056.603-.522 0-.794-.238-1.229-.658C10.091.524 9.549 0 8.631 0 7.626 0 7.03.557 6.55 1.004c-.41.383-.66.6-1.046.6-.368 0-.628-.22-1.055-.606C3.96.556 3.35.006 2.383 0H2.37C1.633 0 .913.317.228.944c-.28.256-.306.698-.056.986.25.288.68.313.962.057.428-.392.844-.59 1.235-.59h.007c.436.002.73.248 1.174.65C4.02 2.47 4.605 3 5.505 3c.931 0 1.503-.534 1.962-.963.438-.409.708-.64 1.164-.64.361 0 .578.194.963.565C10.047 2.4 10.668 3 11.756 3c1.053 0 1.58-.506 2.071-1.07.25-.288.226-.73-.055-.986" mask="url(#prefix__b)"/>
    </g>
</svg>
