<svg xmlns="http://www.w3.org/2000/svg" width="35" height="26" viewBox="0 0 35 26">
    <path fill="#1D1D1B" fill-rule="evenodd" d="M17.499 25.2h-.01c-1.056-.007-10.392-.092-13.037-.805-1.849-.495-3.308-1.947-3.807-3.79-.692-2.588-.648-7.573-.643-7.97-.004-.397-.049-5.423.641-8.033l.002-.008C1.138 2.774 2.63 1.276 4.447.78l.014-.004C7.076.09 16.431.007 17.489 0h.02c1.058.007 10.42.092 13.04.806 1.844.494 3.302 1.944 3.802 3.784.718 2.612.651 7.649.644 8.074.005.419.047 5.358-.64 7.96l-.003.008c-.498 1.842-1.957 3.294-3.808 3.79l-.008.002c-2.615.685-11.97.769-13.028.776h-.01zM3.286 5.3c-.607 2.305-.55 7.266-.55 7.316v.036c-.018 1.376.046 5.361.55 7.248.245.904.965 1.62 1.878 1.865 1.951.526 9.555.691 12.335.71 2.786-.019 10.402-.18 12.339-.685.91-.245 1.627-.959 1.873-1.863.505-1.915.568-5.881.55-7.248v-.043c.025-1.393-.024-5.424-.548-7.327v-.006c-.247-.907-.966-1.623-1.88-1.868-1.932-.526-9.548-.691-12.334-.71-2.785.019-10.393.18-12.336.684-.895.247-1.631.989-1.877 1.892zm10.728 12.817V7.083l9.57 5.517-9.57 5.517z"/>
</svg>
